<svg width="1920" height="1030" viewBox="0 0 1920 1030" fill="none" xmlns="http://www.w3.org/2000/svg">
<path fill-rule="evenodd" clip-rule="evenodd" d="M0 0H1920V1030H1850.6C1861.86 1013.2 1870.71 994.606 1877.17 975.22C1887.64 939.639 1893.92 904.059 1893.92 866.386C1893.92 828.713 1887.64 793.133 1875.08 757.552C1864.62 726.158 1847.87 696.857 1824.85 673.834C1803.92 650.812 1776.71 631.975 1747.41 619.417C1682.53 594.302 1611.37 594.302 1548.58 619.417C1519.28 631.975 1494.16 650.812 1471.14 673.834C1448.12 698.95 1429.28 726.158 1418.82 757.552C1406.26 793.133 1399.98 828.713 1399.98 866.386C1399.98 904.059 1406.26 939.639 1418.82 975.22C1425.4 994.961 1434.46 1013.05 1446.01 1030H1369.17V284H1226.85V627.245C1223.2 625.878 1219.66 624.511 1216.17 623.166C1203.62 618.331 1191.81 613.776 1178.71 610.501C1161.96 606.315 1145.22 604.222 1126.38 604.222C1094.99 604.222 1061.5 610.501 1032.2 623.059C1004.99 635.616 979.877 652.36 961.04 675.382C940.111 700.498 925.46 727.706 917.088 759.101C906.624 794.681 902.438 832.354 902.438 870.027C902.438 905.607 908.716 943.281 921.274 976.768C927.792 995.018 936.745 1013.27 948.134 1030H846.162C852.721 1017.05 857.824 1003.19 861.158 988.749C867.437 957.354 871.622 925.96 871.622 894.566V614.11H729.301V875.729C731.394 909.216 725.116 944.797 710.465 974.098C689.535 1005.49 647.676 1013.86 618.375 992.935C610.003 988.749 603.724 980.377 599.538 974.098C584.888 942.704 578.609 909.216 580.702 875.729V614.11H438.381V894.566C438.381 925.96 442.567 957.354 448.846 988.749C452.179 1003.19 457.282 1017.05 463.842 1030H399.022C405.047 1013.74 407.841 996.3 407.011 978.862C408.968 961.249 405.435 945.465 401.545 928.089L401.545 928.086C401.275 926.881 401.003 925.667 400.732 924.445C396.546 907.702 386.081 893.051 375.616 880.493C360.966 865.843 346.315 853.285 327.478 844.913C302.363 832.355 277.247 821.891 250.039 811.426C243.322 808.547 237.045 805.668 231.208 802.991L231.203 802.989L231.202 802.989L231.201 802.988L231.192 802.984L231.191 802.983C224.303 799.825 218.028 796.947 212.366 794.682C207.211 793.393 202.849 790.517 198.304 787.52C195.468 785.65 192.56 783.733 189.343 782.124C185.158 780.031 180.972 775.846 178.879 769.567C176.786 765.381 176.786 759.102 176.786 754.916C176.786 729.801 199.808 717.243 243.76 717.243C264.69 717.243 287.712 719.336 308.642 723.522C327.478 727.708 346.315 731.893 363.059 738.172L388.174 627.246C367.245 620.967 344.222 614.688 321.2 610.502C291.898 604.223 262.597 602.13 233.295 602.13C180.972 600.037 130.741 614.688 88.8816 643.989C55.3943 669.105 34.4648 710.964 36.5577 754.916C36.5577 775.846 38.6507 798.868 47.0225 817.705C53.3014 834.448 63.7661 849.099 76.3239 861.657C88.8816 874.214 105.625 884.679 122.369 893.051C141.204 901.422 162.132 909.793 183.059 918.164L183.065 918.166C206.087 926.538 227.017 934.91 247.946 947.468C260.504 951.654 268.876 964.211 268.876 976.769C268.876 989.327 262.597 999.792 252.132 1006.07C235.388 1012.35 216.552 1016.54 197.715 1014.44C172.6 1014.44 147.484 1012.35 122.369 1008.16C95.1604 1001.88 72.138 995.606 47.0225 985.141L38.0507 1030H0V0ZM1046.85 861.655C1044.76 899.329 1055.22 937.002 1076.15 968.396C1097.08 995.604 1130.57 1010.26 1164.06 1008.16C1176.61 1008.16 1189.17 1008.16 1199.64 1006.07C1204.54 1005.09 1208.99 1004.57 1213.19 1004.07L1213.19 1004.07C1217.95 1003.52 1222.4 1002.99 1226.85 1001.88V744.45C1216.38 738.171 1203.82 733.985 1191.27 729.799C1176.61 725.613 1161.96 723.52 1147.31 723.52C1080.34 725.613 1046.85 771.658 1046.85 861.655ZM1722.3 761.738C1743.23 793.133 1751.6 830.806 1749.5 866.386C1751.6 901.966 1741.13 939.639 1722.3 971.034C1705.55 996.149 1676.25 1010.8 1646.95 1008.71C1617.65 1010.8 1588.35 996.149 1571.6 971.034C1552.77 939.639 1542.3 904.059 1544.39 866.386C1542.3 828.713 1552.77 793.133 1571.6 761.738C1588.35 736.623 1617.65 721.972 1646.95 724.065C1678.34 724.065 1705.55 736.623 1722.3 761.738Z" fill="#061827"/>
</svg>
